<svg xmlns="http://www.w3.org/2000/svg" viewBox="0 0 800 800">
  <defs>
    <linearGradient id="g" x1="0" x2="1">
      <stop offset="0%" stop-color="#2d3132"/>
      <stop offset="100%" stop-color="#23282a"/>
    </linearGradient>
    <filter id="grain">
      <feTurbulence type="fractalNoise" baseFrequency="0.9" numOctaves="2" stitchTiles="stitch"/>
      <feColorMatrix values="0 0 0 0 0.15 0 0 0 0 0.18 0 0 0 0 0.18 0 0 0 0.08 0"/>
    </filter>
  </defs>
  <rect width="800" height="800" rx="44" fill="url(#g)"/>
  <rect width="800" height="800" rx="44" filter="url(#grain)" opacity="0.2"/>
  <g transform="translate(230 120)">
    <path d="M161 0c28 35 27 78-4 115-16 18-32 33-36 60-3 17 0 38 9 61-51-33-68-100-39-151 14-25 35-39 70-85z" fill="#5a9b87"/>
    <path d="M234 56c19 24 20 53-3 79-11 13-21 24-24 43-2 12 0 27 6 43-35-22-46-69-27-104 9-17 24-26 48-61z" fill="#69b3a1"/>
    <g transform="translate(0 152)">
      <g transform="translate(0 54)">
        <path d="M0 22 70 0l93 33-66 25c-9 3-19 2-28-2L0 22z" fill="#69b3a1"/>
        <path d="M-5 38 67 64c9 3 19 2 27-2l0 82c0 12-12 20-23 14L0 120c-9-4-15-12-15-22V52c0-8 8-14 15-14z" fill="#5a9b87"/>
      </g>
      <g transform="translate(165 0)">
        <path d="M0 21 70 0l94 34-66 24c-9 3-19 2-28-2L0 21z" fill="#69b3a1"/>
        <path d="M-5 37 66 63c9 3 19 2 28-2v84c0 11-12 19-23 14L0 121c-9-4-15-12-15-22V51c0-8 8-14 15-14z" fill="#5a9b87"/>
      </g>
    </g>
  </g>
  <rect x="76" y="82" rx="18" ry="18" width="150" height="44" fill="#5a9b87" opacity="0.17" stroke="#5a9b87" />
  <text x="104" y="112" fill="#69b3a1" font-family="Arial, sans-serif" font-size="22" font-weight="700">Новый</text>
  <text x="78" y="585" fill="#f4ead2" font-family="Arial, sans-serif" font-size="54" font-weight="700">Burner Mini</text>
<text x="78" y="653" fill="#f4ead2" font-family="Arial, sans-serif" font-size="54" font-weight="700">1000W</text>
  <text x="78" y="730" fill="#b8c8bf" font-family="Arial, sans-serif" font-size="28">Компактная плитка для розжига</text>
</svg>