<svg width="640" height="480" viewBox="0 0 640 480" fill="none" xmlns="http://www.w3.org/2000/svg">
<rect width="640" height="480" rx="36" fill="#1E2628"/>
<rect x="28" y="28" width="584" height="424" rx="28" fill="url(#bg)"/>
<rect x="68" y="88" width="504" height="280" rx="28" fill="#243033" stroke="#3B4B4E" stroke-width="2"/>
<rect x="108" y="128" width="214" height="200" rx="24" fill="#58B8AA" fill-opacity="0.18"/>
<path d="M194 154C232 114 278 138 270 187C264 227 228 236 214 272C198 236 163 222 163 186C163 170 172 163 194 154Z" fill="#58B8AA"/>
<rect x="352" y="128" width="180" height="78" rx="20" fill="#101617" fill-opacity="0.5"/>
<text x="442" y="176" fill="#F2EAD5" font-family="Arial, Helvetica, sans-serif" font-size="46" font-weight="700" text-anchor="middle">CP</text>
<text x="352" y="250" fill="#F2EAD5" font-family="Arial, Helvetica, sans-serif" font-size="30" font-weight="700">Cube Pro</text>
<text x="352" y="294" fill="#9DB2AD" font-family="Arial, Helvetica, sans-serif" font-size="22">96 кубиков</text>
<text x="320" y="410" fill="#F2EAD5" font-family="Arial, Helvetica, sans-serif" font-size="26" font-weight="700" text-anchor="middle">СТАВЬ УГОЛЬКИ</text>
<defs>
<linearGradient id="bg" x1="58" y1="48" x2="592" y2="440" gradientUnits="userSpaceOnUse">
<stop stop-color="#253033"/>
<stop offset="1" stop-color="#1A2022"/>
</linearGradient>
</defs>
</svg>